<?xml version="1.0" encoding="UTF-8"?>
<svg width="87px" height="56px" viewBox="0 0 87 56" version="1.1" xmlns="http://www.w3.org/2000/svg" xmlns:xlink="http://www.w3.org/1999/xlink">
    <!-- Generator: Sketch 63.1 (92452) - https://sketch.com -->
    <title>youtube-icon</title>
    <desc>Created with Sketch.</desc>
    <g id="youtube-icon" stroke="none" stroke-width="1" fill="none" fill-rule="evenodd">
        <path d="M34.9339357,39.8067502 C42.4032158,35.816116 49.7299693,31.8919767 57.1565393,27.9281353 C49.6733425,23.937501 42.3605058,20.0133618 34.9339357,16.0495204 L34.9339357,39.8067502 Z M45.4274255,55.9266345 L27.578389,55.6228197 C21.799274,55.5169879 16.0057623,55.7282861 10.3399881,54.6316868 C1.72098387,52.9932627 1.110392,44.9597075 0.471443121,38.2210188 C-0.408932979,28.7473473 -0.068081717,19.1017144 1.59329007,9.70708181 C2.53120909,4.43574878 6.22224479,1.29026689 11.9303364,0.947967796 C31.1993175,-0.294206075 50.596385,-0.14700772 69.822656,0.432529983 C71.8531925,0.485669157 73.8976456,0.776046938 75.8999123,1.10657341 C85.7832029,2.71865115 86.0242375,11.8224594 86.6648878,19.4861919 C87.3038367,27.2289634 87.0340524,35.0115182 85.8128687,42.7015971 C84.8331122,49.0687175 82.9585829,54.4082506 75.047806,54.9236884 C65.1361584,55.5976912 55.4519777,56.1403684 45.5124529,55.9675951 C45.5128456,55.9266345 45.4557826,55.9266345 45.4274255,55.9266345 L45.4274255,55.9266345 Z" id="Fill-1" fill="#FF0402"></path>
    </g>
</svg>