<svg id="Layer_1" xmlns="http://www.w3.org/2000/svg" xmlns:xlink="http://www.w3.org/1999/xlink" viewBox="0 0 214.7 237.2"><style>.st0{fill:#fff}.st1{clip-path:url(#SVGID_2_)}.st2{fill:#068c9e;stroke:#068c9e;stroke-width:1.0104;stroke-miterlimit:10}.st3{clip-path:url(#SVGID_4_)}.st4{fill:#5ea8a8;stroke:#5ea8a8;stroke-width:1.0083;stroke-miterlimit:10}.st5{clip-path:url(#SVGID_6_);fill:#3eb69d}.st6,.st7{clip-path:url(#SVGID_8_);fill:#010101}.st7{clip-path:url(#SVGID_10_)}.st10,.st8,.st9{clip-path:url(#SVGID_12_);fill:#010101}.st10,.st9{clip-path:url(#SVGID_14_)}.st10{clip-path:url(#SVGID_16_)}.st11,.st12,.st13{clip-path:url(#SVGID_18_);fill:#010101}.st12,.st13{clip-path:url(#SVGID_20_)}.st13{clip-path:url(#SVGID_22_)}.st14,.st15,.st16{clip-path:url(#SVGID_24_);fill:#010101}.st15,.st16{clip-path:url(#SVGID_26_)}.st16{clip-path:url(#SVGID_28_)}.st17{clip-path:url(#SVGID_30_);fill:#fff}.st18{clip-path:url(#SVGID_32_);fill:#010101}.st19{clip-path:url(#SVGID_34_);fill:#032a45}.st20,.st21,.st22{clip-path:url(#SVGID_36_);fill:#010101}.st21,.st22{clip-path:url(#SVGID_38_)}.st22{clip-path:url(#SVGID_40_)}.st23{clip-path:url(#SVGID_42_);fill:#dbc1af}.st24{clip-path:url(#SVGID_44_);fill:#032a45}.st25{clip-path:url(#SVGID_46_);fill:#088ab5}.st26{clip-path:url(#SVGID_48_);fill:#2c2e2d}.st27{clip-path:url(#SVGID_50_)}.st28,.st29{fill:#dbc1af}.st29{clip-path:url(#SVGID_52_)}.st30{clip-path:url(#SVGID_54_);fill:#088ab5}.st31{clip-path:url(#SVGID_56_)}.st32{fill:#392a1f}.st33{opacity:.79}.st34{fill:none;stroke:#dbdcdc;stroke-width:.4;stroke-miterlimit:10}</style><circle class="st0" cx="108.3" cy="131" r="99.5"/><defs><circle id="SVGID_1_" cx="108.3" cy="131" r="92.6"/></defs><clipPath id="SVGID_2_"><use xlink:href="#SVGID_1_" overflow="visible"/></clipPath><g class="st1"><path class="st2" d="M23.2 46.2h9.4v9.3h-9.4zM32.6 46.2H42v9.3h-9.4zM42 46.2h9.4v9.3H42zM51.4 46.2h9.4v9.3h-9.4zM60.8 46.2h9.4v9.3h-9.4z"/><path class="st2" d="M70.1 46.2h9.4v9.3h-9.4zM79.5 46.2h9.4v9.3h-9.4zM88.9 46.2h9.4v9.3h-9.4z"/><path class="st2" d="M98.3 46.2h9.4v9.3h-9.4zM107.7 46.2h9.4v9.3h-9.4z"/><path class="st2" d="M117.1 46.2h9.4v9.3h-9.4zM126.5 46.2h9.4v9.3h-9.4zM135.9 46.2h9.4v9.3h-9.4zM145.3 46.2h9.4v9.3h-9.4z"/><path class="st2" d="M154.7 46.2h9.4v9.3h-9.4zM164.1 46.2h9.4v9.3h-9.4zM173.5 46.2h9.4v9.3h-9.4zM182.9 46.2h9.4v9.3h-9.4zM23.2 55.5h9.4v9.3h-9.4zM32.6 55.5H42v9.3h-9.4zM42 55.5h9.4v9.3H42zM51.4 55.5h9.4v9.3h-9.4zM60.8 55.5h9.4v9.3h-9.4z"/><path class="st2" d="M70.1 55.5h9.4v9.3h-9.4zM79.5 55.5h9.4v9.3h-9.4zM88.9 55.5h9.4v9.3h-9.4z"/><path class="st2" d="M98.3 55.5h9.4v9.3h-9.4zM107.7 55.5h9.4v9.3h-9.4z"/><path class="st2" d="M117.1 55.5h9.4v9.3h-9.4zM126.5 55.5h9.4v9.3h-9.4zM135.9 55.5h9.4v9.3h-9.4zM145.3 55.5h9.4v9.3h-9.4z"/><path class="st2" d="M154.7 55.5h9.4v9.3h-9.4zM164.1 55.5h9.4v9.3h-9.4zM173.5 55.5h9.4v9.3h-9.4zM182.9 55.5h9.4v9.3h-9.4zM23.2 64.9h9.4v9.3h-9.4zM32.6 64.9H42v9.3h-9.4zM42 64.9h9.4v9.3H42zM51.4 64.9h9.4v9.3h-9.4zM60.8 64.9h9.4v9.3h-9.4z"/><path class="st2" d="M70.1 64.9h9.4v9.3h-9.4zM79.5 64.9h9.4v9.3h-9.4zM88.9 64.9h9.4v9.3h-9.4z"/><path class="st2" d="M98.3 64.9h9.4v9.3h-9.4zM107.7 64.9h9.4v9.3h-9.4z"/><path class="st2" d="M117.1 64.9h9.4v9.3h-9.4zM126.5 64.9h9.4v9.3h-9.4zM135.9 64.9h9.4v9.3h-9.4zM145.3 64.9h9.4v9.3h-9.4z"/><path class="st2" d="M154.7 64.9h9.4v9.3h-9.4zM164.1 64.9h9.4v9.3h-9.4zM173.5 64.9h9.4v9.3h-9.4zM182.9 64.9h9.4v9.3h-9.4zM23.2 74.2h9.4v9.3h-9.4zM32.6 74.2H42v9.3h-9.4zM42 74.2h9.4v9.3H42zM51.4 74.2h9.4v9.3h-9.4zM60.8 74.2h9.4v9.3h-9.4z"/><path class="st2" d="M70.1 74.2h9.4v9.3h-9.4zM79.5 74.2h9.4v9.3h-9.4zM88.9 74.2h9.4v9.3h-9.4z"/><path class="st2" d="M98.3 74.2h9.4v9.3h-9.4zM107.7 74.2h9.4v9.3h-9.4z"/><path class="st2" d="M117.1 74.2h9.4v9.3h-9.4zM126.5 74.2h9.4v9.3h-9.4zM135.9 74.2h9.4v9.3h-9.4zM145.3 74.2h9.4v9.3h-9.4z"/><path class="st2" d="M154.7 74.2h9.4v9.3h-9.4zM164.1 74.2h9.4v9.3h-9.4zM173.5 74.2h9.4v9.3h-9.4zM182.9 74.2h9.4v9.3h-9.4zM23.2 83.5h9.4v9.3h-9.4zM32.6 83.5H42v9.3h-9.4zM42 83.5h9.4v9.3H42zM51.4 83.5h9.4v9.3h-9.4zM60.8 83.5h9.4v9.3h-9.4z"/><path class="st2" d="M70.1 83.5h9.4v9.3h-9.4zM79.5 83.5h9.4v9.3h-9.4zM88.9 83.5h9.4v9.3h-9.4z"/><path class="st2" d="M98.3 83.5h9.4v9.3h-9.4zM107.7 83.5h9.4v9.3h-9.4z"/><path class="st2" d="M117.1 83.5h9.4v9.3h-9.4zM126.5 83.5h9.4v9.3h-9.4zM135.9 83.5h9.4v9.3h-9.4zM145.3 83.5h9.4v9.3h-9.4z"/><path class="st2" d="M154.7 83.5h9.4v9.3h-9.4zM164.1 83.5h9.4v9.3h-9.4zM173.5 83.5h9.4v9.3h-9.4zM182.9 83.5h9.4v9.3h-9.4zM23.2 92.9h9.4v9.3h-9.4zM32.6 92.9H42v9.3h-9.4zM42 92.9h9.4v9.3H42zM51.4 92.9h9.4v9.3h-9.4zM60.8 92.9h9.4v9.3h-9.4z"/><path class="st2" d="M70.1 92.9h9.4v9.3h-9.4zM79.5 92.9h9.4v9.3h-9.4zM88.9 92.9h9.4v9.3h-9.4z"/><path class="st2" d="M98.3 92.9h9.4v9.3h-9.4zM107.7 92.9h9.4v9.3h-9.4z"/><path class="st2" d="M117.1 92.9h9.4v9.3h-9.4zM126.5 92.9h9.4v9.3h-9.4zM135.9 92.9h9.4v9.3h-9.4zM145.3 92.9h9.4v9.3h-9.4z"/><path class="st2" d="M154.7 92.9h9.4v9.3h-9.4zM164.1 92.9h9.4v9.3h-9.4zM173.5 92.9h9.4v9.3h-9.4zM182.9 92.9h9.4v9.3h-9.4zM23.2 102.2h9.4v9.3h-9.4zM32.6 102.2H42v9.3h-9.4zM42 102.2h9.4v9.3H42zM51.4 102.2h9.4v9.3h-9.4zM60.8 102.2h9.4v9.3h-9.4z"/><path class="st2" d="M70.1 102.2h9.4v9.3h-9.4zM79.5 102.2h9.4v9.3h-9.4zM88.9 102.2h9.4v9.3h-9.4z"/><path class="st2" d="M98.3 102.2h9.4v9.3h-9.4zM107.7 102.2h9.4v9.3h-9.4z"/><path class="st2" d="M117.1 102.2h9.4v9.3h-9.4zM126.5 102.2h9.4v9.3h-9.4zM135.9 102.2h9.4v9.3h-9.4zM145.3 102.2h9.4v9.3h-9.4z"/><path class="st2" d="M154.7 102.2h9.4v9.3h-9.4zM164.1 102.2h9.4v9.3h-9.4zM173.5 102.2h9.4v9.3h-9.4zM182.9 102.2h9.4v9.3h-9.4zM23.2 111.5h9.4v9.3h-9.4zM32.6 111.5H42v9.3h-9.4zM42 111.5h9.4v9.3H42zM51.4 111.5h9.4v9.3h-9.4zM60.8 111.5h9.4v9.3h-9.4z"/><path class="st2" d="M70.1 111.5h9.4v9.3h-9.4zM79.5 111.5h9.4v9.3h-9.4zM88.9 111.5h9.4v9.3h-9.4z"/><path class="st2" d="M98.3 111.5h9.4v9.3h-9.4zM107.7 111.5h9.4v9.3h-9.4z"/><path class="st2" d="M117.1 111.5h9.4v9.3h-9.4zM126.5 111.5h9.4v9.3h-9.4zM135.9 111.5h9.4v9.3h-9.4zM145.3 111.5h9.4v9.3h-9.4z"/><path class="st2" d="M154.7 111.5h9.4v9.3h-9.4zM164.1 111.5h9.4v9.3h-9.4zM173.5 111.5h9.4v9.3h-9.4zM182.9 111.5h9.4v9.3h-9.4zM23.2 120.9h9.4v9.3h-9.4zM32.6 120.9H42v9.3h-9.4zM42 120.9h9.4v9.3H42zM51.4 120.9h9.4v9.3h-9.4zM60.8 120.9h9.4v9.3h-9.4z"/><path class="st2" d="M70.1 120.9h9.4v9.3h-9.4zM79.5 120.9h9.4v9.3h-9.4zM88.9 120.9h9.4v9.3h-9.4z"/><path class="st2" d="M98.3 120.9h9.4v9.3h-9.4zM107.7 120.9h9.4v9.3h-9.4z"/><path class="st2" d="M117.1 120.9h9.4v9.3h-9.4zM126.5 120.9h9.4v9.3h-9.4zM135.9 120.9h9.4v9.3h-9.4zM145.3 120.9h9.4v9.3h-9.4z"/><path class="st2" d="M154.7 120.9h9.4v9.3h-9.4zM164.1 120.9h9.4v9.3h-9.4zM173.5 120.9h9.4v9.3h-9.4zM182.9 120.9h9.4v9.3h-9.4zM23.2 130.2h9.4v9.3h-9.4zM32.6 130.2H42v9.3h-9.4zM42 130.2h9.4v9.3H42zM51.4 130.2h9.4v9.3h-9.4zM60.8 130.2h9.4v9.3h-9.4z"/><path class="st2" d="M70.1 130.2h9.4v9.3h-9.4zM79.5 130.2h9.4v9.3h-9.4zM88.9 130.2h9.4v9.3h-9.4z"/><path class="st2" d="M98.3 130.2h9.4v9.3h-9.4zM107.7 130.2h9.4v9.3h-9.4z"/><path class="st2" d="M117.1 130.2h9.4v9.3h-9.4zM126.5 130.2h9.4v9.3h-9.4zM135.9 130.2h9.4v9.3h-9.4zM145.3 130.2h9.4v9.3h-9.4z"/><path class="st2" d="M154.7 130.2h9.4v9.3h-9.4zM164.1 130.2h9.4v9.3h-9.4zM173.5 130.2h9.4v9.3h-9.4zM182.9 130.2h9.4v9.3h-9.4zM23.2 139.6h9.4v9.3h-9.4zM32.6 139.6H42v9.3h-9.4zM42 139.6h9.4v9.3H42zM51.4 139.6h9.4v9.3h-9.4zM60.8 139.6h9.4v9.3h-9.4z"/><path class="st2" d="M70.1 139.6h9.4v9.3h-9.4zM79.5 139.6h9.4v9.3h-9.4zM88.9 139.6h9.4v9.3h-9.4z"/><path class="st2" d="M98.3 139.6h9.4v9.3h-9.4zM107.7 139.6h9.4v9.3h-9.4z"/><path class="st2" d="M117.1 139.6h9.4v9.3h-9.4zM126.5 139.6h9.4v9.3h-9.4zM135.9 139.6h9.4v9.3h-9.4zM145.3 139.6h9.4v9.3h-9.4z"/><path class="st2" d="M154.7 139.6h9.4v9.3h-9.4zM164.1 139.6h9.4v9.3h-9.4zM173.5 139.6h9.4v9.3h-9.4zM182.9 139.6h9.4v9.3h-9.4zM23.2 148.9h9.4v9.3h-9.4zM32.6 148.9H42v9.3h-9.4zM42 148.9h9.4v9.3H42zM51.4 148.9h9.4v9.3h-9.4zM60.8 148.9h9.4v9.3h-9.4z"/><path class="st2" d="M70.1 148.9h9.4v9.3h-9.4zM79.5 148.9h9.4v9.3h-9.4zM88.9 148.9h9.4v9.3h-9.4z"/><path class="st2" d="M98.3 148.9h9.4v9.3h-9.4zM107.7 148.9h9.4v9.3h-9.4z"/><path class="st2" d="M117.1 148.9h9.4v9.3h-9.4zM126.5 148.9h9.4v9.3h-9.4zM135.9 148.9h9.4v9.3h-9.4zM145.3 148.9h9.4v9.3h-9.4z"/><path class="st2" d="M154.7 148.9h9.4v9.3h-9.4zM164.1 148.9h9.4v9.3h-9.4zM173.5 148.9h9.4v9.3h-9.4zM182.9 148.9h9.4v9.3h-9.4zM23.2 158.2h9.4v9.3h-9.4zM32.6 158.2H42v9.3h-9.4zM42 158.2h9.4v9.3H42zM51.4 158.2h9.4v9.3h-9.4zM60.8 158.2h9.4v9.3h-9.4z"/><path class="st2" d="M70.1 158.2h9.4v9.3h-9.4zM79.5 158.2h9.4v9.3h-9.4zM88.9 158.2h9.4v9.3h-9.4z"/><path class="st2" d="M98.3 158.2h9.4v9.3h-9.4zM107.7 158.2h9.4v9.3h-9.4z"/><path class="st2" d="M117.1 158.2h9.4v9.3h-9.4zM126.5 158.2h9.4v9.3h-9.4zM135.9 158.2h9.4v9.3h-9.4zM145.3 158.2h9.4v9.3h-9.4z"/><path class="st2" d="M154.7 158.2h9.4v9.3h-9.4zM164.1 158.2h9.4v9.3h-9.4zM173.5 158.2h9.4v9.3h-9.4zM182.9 158.2h9.4v9.3h-9.4zM23.2 167.6h9.4v9.3h-9.4zM32.6 167.6H42v9.3h-9.4zM42 167.6h9.4v9.3H42zM51.4 167.6h9.4v9.3h-9.4zM60.8 167.6h9.4v9.3h-9.4z"/><path class="st2" d="M70.1 167.6h9.4v9.3h-9.4zM79.5 167.6h9.4v9.3h-9.4zM88.9 167.6h9.4v9.3h-9.4z"/><path class="st2" d="M98.3 167.6h9.4v9.3h-9.4zM107.7 167.6h9.4v9.3h-9.4z"/><path class="st2" d="M117.1 167.6h9.4v9.3h-9.4zM126.5 167.6h9.4v9.3h-9.4zM135.9 167.6h9.4v9.3h-9.4zM145.3 167.6h9.4v9.3h-9.4z"/><path class="st2" d="M154.7 167.6h9.4v9.3h-9.4zM164.1 167.6h9.4v9.3h-9.4zM173.5 167.6h9.4v9.3h-9.4zM182.9 167.6h9.4v9.3h-9.4zM23.2 176.9h9.4v9.3h-9.4zM32.6 176.9H42v9.3h-9.4zM42 176.9h9.4v9.3H42zM51.4 176.9h9.4v9.3h-9.4zM60.8 176.9h9.4v9.3h-9.4z"/><path class="st2" d="M70.1 176.9h9.4v9.3h-9.4zM79.5 176.9h9.4v9.3h-9.4zM88.9 176.9h9.4v9.3h-9.4z"/><path class="st2" d="M98.3 176.9h9.4v9.3h-9.4zM107.7 176.9h9.4v9.3h-9.4z"/><path class="st2" d="M117.1 176.9h9.4v9.3h-9.4zM126.5 176.9h9.4v9.3h-9.4zM135.9 176.9h9.4v9.3h-9.4zM145.3 176.9h9.4v9.3h-9.4z"/><path class="st2" d="M154.7 176.9h9.4v9.3h-9.4zM164.1 176.9h9.4v9.3h-9.4zM173.5 176.9h9.4v9.3h-9.4zM182.9 176.9h9.4v9.3h-9.4zM23.2 186.2h9.4v9.3h-9.4zM32.6 186.2H42v9.3h-9.4zM42 186.2h9.4v9.3H42zM51.4 186.2h9.4v9.3h-9.4zM60.8 186.2h9.4v9.3h-9.4z"/><path class="st2" d="M70.1 186.2h9.4v9.3h-9.4zM79.5 186.2h9.4v9.3h-9.4zM88.9 186.2h9.4v9.3h-9.4z"/><path class="st2" d="M98.3 186.2h9.4v9.3h-9.4zM107.7 186.2h9.4v9.3h-9.4z"/><path class="st2" d="M117.1 186.2h9.4v9.3h-9.4zM126.5 186.2h9.4v9.3h-9.4zM135.9 186.2h9.4v9.3h-9.4zM145.3 186.2h9.4v9.3h-9.4z"/><path class="st2" d="M154.7 186.2h9.4v9.3h-9.4zM164.1 186.2h9.4v9.3h-9.4zM173.5 186.2h9.4v9.3h-9.4zM182.9 186.2h9.4v9.3h-9.4zM23.2 195.6h9.4v9.3h-9.4zM32.6 195.6H42v9.3h-9.4zM42 195.6h9.4v9.3H42zM51.4 195.6h9.4v9.3h-9.4zM60.8 195.6h9.4v9.3h-9.4z"/><path class="st2" d="M70.1 195.6h9.4v9.3h-9.4zM79.5 195.6h9.4v9.3h-9.4zM88.9 195.6h9.4v9.3h-9.4z"/><path class="st2" d="M98.3 195.6h9.4v9.3h-9.4zM107.7 195.6h9.4v9.3h-9.4z"/><path class="st2" d="M117.1 195.6h9.4v9.3h-9.4zM126.5 195.6h9.4v9.3h-9.4zM135.9 195.6h9.4v9.3h-9.4zM145.3 195.6h9.4v9.3h-9.4z"/><path class="st2" d="M154.7 195.6h9.4v9.3h-9.4zM164.1 195.6h9.4v9.3h-9.4zM173.5 195.6h9.4v9.3h-9.4zM182.9 195.6h9.4v9.3h-9.4zM23.2 204.9h9.4v9.3h-9.4zM32.6 204.9H42v9.3h-9.4zM42 204.9h9.4v9.3H42zM51.4 204.9h9.4v9.3h-9.4zM60.8 204.9h9.4v9.3h-9.4z"/><path class="st2" d="M70.1 204.9h9.4v9.3h-9.4zM79.5 204.9h9.4v9.3h-9.4zM88.9 204.9h9.4v9.3h-9.4z"/><path class="st2" d="M98.3 204.9h9.4v9.3h-9.4zM107.7 204.9h9.4v9.3h-9.4z"/><path class="st2" d="M117.1 204.9h9.4v9.3h-9.4zM126.5 204.9h9.4v9.3h-9.4zM135.9 204.9h9.4v9.3h-9.4zM145.3 204.9h9.4v9.3h-9.4z"/><path class="st2" d="M154.7 204.9h9.4v9.3h-9.4zM164.1 204.9h9.4v9.3h-9.4zM173.5 204.9h9.4v9.3h-9.4zM182.9 204.9h9.4v9.3h-9.4zM42 214.2h9.4v9.3H42zM51.4 214.2h9.4v9.3h-9.4zM60.8 214.2h9.4v9.3h-9.4z"/><path class="st2" d="M70.1 214.2h9.4v9.3h-9.4zM79.5 214.2h9.4v9.3h-9.4zM88.9 214.2h9.4v9.3h-9.4z"/><path class="st2" d="M98.3 214.2h9.4v9.3h-9.4zM107.7 214.2h9.4v9.3h-9.4z"/><path class="st2" d="M117.1 214.2h9.4v9.3h-9.4zM126.5 214.2h9.4v9.3h-9.4zM135.9 214.2h9.4v9.3h-9.4zM145.3 214.2h9.4v9.3h-9.4z"/><path class="st2" d="M154.7 214.2h9.4v9.3h-9.4zM164.1 214.2h9.4v9.3h-9.4z"/></g><defs><circle id="SVGID_3_" cx="108.3" cy="131" r="92.6"/></defs><clipPath id="SVGID_4_"><use xlink:href="#SVGID_3_" overflow="visible"/></clipPath><g class="st3"><path class="st4" d="M13.8 36.8h9.4v9.3h-9.4z"/><path class="st4" d="M23.1 36.8h9.4v9.3h-9.4zM32.5 36.8h9.4v9.3h-9.4z"/><path class="st4" d="M41.8 36.8h9.4v9.3h-9.4zM51.2 36.8h9.4v9.3h-9.4zM60.6 36.8H70v9.3h-9.4z"/><path class="st4" d="M69.9 36.8h9.4v9.3h-9.4z"/><path class="st4" d="M79.3 36.8h9.4v9.3h-9.4z"/><path class="st4" d="M88.6 36.8H98v9.3h-9.4zM98 36.8h9.4v9.3H98z"/><path class="st4" d="M107.3 36.8h9.4v9.3h-9.4zM116.7 36.8h9.4v9.3h-9.4z"/><path class="st4" d="M126 36.8h9.4v9.3H126zM135.4 36.8h9.4v9.3h-9.4z"/><path class="st4" d="M144.7 36.8h9.4v9.3h-9.4zM154.1 36.8h9.4v9.3h-9.4zM163.5 36.8h9.4v9.3h-9.4z"/><path class="st4" d="M172.8 36.8h9.4v9.3h-9.4z"/><path class="st4" d="M182.2 36.8h9.4v9.3h-9.4z"/><path class="st4" d="M191.5 36.8h9.4v9.3h-9.4zM13.8 46.2h9.4v9.3h-9.4zM191.5 46.2h9.4v9.3h-9.4zM13.8 55.5h9.4v9.3h-9.4zM191.5 55.5h9.4v9.3h-9.4zM13.8 64.9h9.4v9.3h-9.4zM191.5 64.9h9.4v9.3h-9.4zM13.8 74.2h9.4v9.3h-9.4zM191.5 74.2h9.4v9.3h-9.4zM13.8 83.5h9.4v9.3h-9.4zM191.5 83.5h9.4v9.3h-9.4zM13.8 92.9h9.4v9.3h-9.4zM191.5 92.9h9.4v9.3h-9.4zM13.8 102.2h9.4v9.3h-9.4zM191.5 102.2h9.4v9.3h-9.4zM13.8 111.5h9.4v9.3h-9.4zM191.5 111.5h9.4v9.3h-9.4zM13.8 120.9h9.4v9.3h-9.4zM191.5 120.9h9.4v9.3h-9.4z"/><path class="st4" d="M13.8 130.2h9.4v9.3h-9.4zM191.5 130.2h9.4v9.3h-9.4zM13.8 139.6h9.4v9.3h-9.4zM191.5 139.6h9.4v9.3h-9.4zM13.8 148.9h9.4v9.3h-9.4zM191.5 148.9h9.4v9.3h-9.4z"/><path class="st4" d="M13.8 158.2h9.4v9.3h-9.4zM191.5 158.2h9.4v9.3h-9.4zM13.8 167.6h9.4v9.3h-9.4zM191.5 167.6h9.4v9.3h-9.4zM13.8 176.9h9.4v9.3h-9.4zM191.5 176.9h9.4v9.3h-9.4z"/><path class="st4" d="M13.8 186.2h9.4v9.3h-9.4zM191.5 186.2h9.4v9.3h-9.4zM13.8 195.6h9.4v9.3h-9.4zM191.5 195.6h9.4v9.3h-9.4zM191.5 204.9h9.4v9.3h-9.4zM23.1 214.2h9.4v9.3h-9.4zM32.5 214.2h9.4v9.3h-9.4zM172.8 214.2h9.4v9.3h-9.4z"/><path class="st4" d="M182.2 214.2h9.4v9.3h-9.4z"/><path class="st4" d="M191.5 214.2h9.4v9.3h-9.4zM13.8 204.9h9.4v9.3h-9.4z"/><path class="st4" d="M13.8 214.2h9.4v9.3h-9.4z"/></g><defs><circle id="SVGID_5_" cx="108.3" cy="131" r="92.6"/></defs><clipPath id="SVGID_6_"><use xlink:href="#SVGID_5_" overflow="visible"/></clipPath><path class="st5" d="M13.2 34.5h187.7v189.1H13.2z"/><defs><circle id="SVGID_7_" cx="108.3" cy="131" r="92.6"/></defs><clipPath id="SVGID_8_"><use xlink:href="#SVGID_7_" overflow="visible"/></clipPath><path class="st6" d="M51.4 93h113.1v9.5H51.4z"/><defs><circle id="SVGID_9_" cx="108.3" cy="131" r="92.6"/></defs><clipPath id="SVGID_10_"><use xlink:href="#SVGID_9_" overflow="visible"/></clipPath><path class="st7" d="M51.1 121.2h47.5v9.5H51.1z"/><defs><circle id="SVGID_11_" cx="108.3" cy="131" r="92.6"/></defs><clipPath id="SVGID_12_"><use xlink:href="#SVGID_11_" overflow="visible"/></clipPath><path class="st8" d="M51.4 186.2h30.2v9.5H51.4z"/><defs><circle id="SVGID_13_" cx="108.3" cy="131" r="92.6"/></defs><clipPath id="SVGID_14_"><use xlink:href="#SVGID_13_" overflow="visible"/></clipPath><path class="st9" d="M132.7 186.2h32.4v9.5h-32.4z"/><defs><circle id="SVGID_15_" cx="108.3" cy="131" r="92.6"/></defs><clipPath id="SVGID_16_"><use xlink:href="#SVGID_15_" overflow="visible"/></clipPath><path class="st10" d="M51.4 113.8h47.2v9.5H51.4z"/><defs><circle id="SVGID_17_" cx="108.3" cy="131" r="92.6"/></defs><clipPath id="SVGID_18_"><use xlink:href="#SVGID_17_" overflow="visible"/></clipPath><path class="st11" d="M51.1 101.1h28.2v22.2H51.1z"/><defs><circle id="SVGID_19_" cx="108.3" cy="131" r="92.6"/></defs><clipPath id="SVGID_20_"><use xlink:href="#SVGID_19_" overflow="visible"/></clipPath><path class="st12" d="M74.8 101.1H98v29.2H74.8z"/><defs><circle id="SVGID_21_" cx="108.3" cy="131" r="92.6"/></defs><clipPath id="SVGID_22_"><use xlink:href="#SVGID_21_" overflow="visible"/></clipPath><path class="st13" d="M135.8 101.1h24v29.2h-24z"/><g><defs><circle id="SVGID_23_" cx="108.3" cy="131" r="92.6"/></defs><clipPath id="SVGID_24_"><use xlink:href="#SVGID_23_" overflow="visible"/></clipPath><path class="st14" d="M154.6 93.1h9.9v37.3h-9.9z"/></g><g><defs><circle id="SVGID_25_" cx="108.3" cy="131" r="92.6"/></defs><clipPath id="SVGID_26_"><use xlink:href="#SVGID_25_" overflow="visible"/></clipPath><path class="st15" d="M116.6 101.1h29v29.2h-29z"/></g><g><defs><circle id="SVGID_27_" cx="108.3" cy="131" r="92.6"/></defs><clipPath id="SVGID_28_"><use xlink:href="#SVGID_27_" overflow="visible"/></clipPath><path class="st16" d="M136.2 112.2h28.1v18.1h-28.1z"/></g><g><defs><circle id="SVGID_29_" cx="108.3" cy="131" r="92.6"/></defs><clipPath id="SVGID_30_"><use xlink:href="#SVGID_29_" overflow="visible"/></clipPath><path class="st17" d="M88.9 149.8h36.9v8.7H88.9z"/></g><g><defs><circle id="SVGID_31_" cx="108.3" cy="131" r="92.6"/></defs><clipPath id="SVGID_32_"><use xlink:href="#SVGID_31_" overflow="visible"/></clipPath><path class="st18" d="M42.1 95.1h122.4v7.5H42.1z"/></g><g><defs><circle id="SVGID_33_" cx="108.3" cy="131" r="92.6"/></defs><clipPath id="SVGID_34_"><use xlink:href="#SVGID_33_" overflow="visible"/></clipPath><path class="st19" d="M123.8 101.1h33v22.3h-33z"/></g><g><defs><circle id="SVGID_35_" cx="108.3" cy="131" r="92.6"/></defs><clipPath id="SVGID_36_"><use xlink:href="#SVGID_35_" overflow="visible"/></clipPath><path class="st20" d="M42.3 195.6h45.5v28H42.3z"/></g><g><defs><circle id="SVGID_37_" cx="108.3" cy="131" r="92.6"/></defs><clipPath id="SVGID_38_"><use xlink:href="#SVGID_37_" overflow="visible"/></clipPath><path class="st21" d="M42.3 203.6h130.9v21.9H42.3z"/></g><g><defs><circle id="SVGID_39_" cx="108.3" cy="131" r="92.6"/></defs><clipPath id="SVGID_40_"><use xlink:href="#SVGID_39_" overflow="visible"/></clipPath><path class="st22" d="M126.1 195.5h47.2v28.1h-47.2z"/></g><g><defs><circle id="SVGID_41_" cx="108.3" cy="131" r="92.6"/></defs><clipPath id="SVGID_42_"><use xlink:href="#SVGID_41_" overflow="visible"/></clipPath><path class="st23" d="M51.1 130.3h113.4v10H51.1z"/></g><g><defs><circle id="SVGID_43_" cx="108.3" cy="131" r="92.6"/></defs><clipPath id="SVGID_44_"><use xlink:href="#SVGID_43_" overflow="visible"/></clipPath><path class="st24" d="M58.9 101.1h30.9v22.3H58.9z"/></g><g><defs><circle id="SVGID_45_" cx="108.3" cy="131" r="92.6"/></defs><clipPath id="SVGID_46_"><use xlink:href="#SVGID_45_" overflow="visible"/></clipPath><path class="st25" d="M136.5 109.9h7.2v6.2h-7.2z"/></g><g><defs><circle id="SVGID_47_" cx="108.3" cy="131" r="92.6"/></defs><clipPath id="SVGID_48_"><use xlink:href="#SVGID_47_" overflow="visible"/></clipPath><path class="st26" d="M87.8 203.6H126v21.9H87.8z"/></g><g><defs><circle id="SVGID_49_" cx="108.3" cy="131" r="92.6"/></defs><clipPath id="SVGID_50_"><use xlink:href="#SVGID_49_" overflow="visible"/></clipPath><g class="st27"><path class="st28" d="M164.4 95.1v-21h-9.3V65H60.6v9.1h-9.5v21.2h113.3zM97.7 102.4h19v36.5h-19zM164.5 130.3H146v9.5H125.2v10.1h10.1v9.4h29.2V149zM88.9 149.8v-10h-9.4v-1.3H60.6v1.3h-9.5v10h9.5v9H70v9.5h9.5v-18.5zM134.3 177.5h-8.2v5.8H95.2v-6.2H79.6V196h8.2v7.6H126V196h8.3v-12.7z"/></g></g><g><defs><circle id="SVGID_51_" cx="108.3" cy="131" r="92.6"/></defs><clipPath id="SVGID_52_"><use xlink:href="#SVGID_51_" overflow="visible"/></clipPath><path class="st29" d="M88.9 158.4h36.4v6.6H88.9z"/></g><g><defs><circle id="SVGID_53_" cx="108.3" cy="131" r="92.6"/></defs><clipPath id="SVGID_54_"><use xlink:href="#SVGID_53_" overflow="visible"/></clipPath><path class="st30" d="M71.5 109.9h7.2v6.2h-7.2z"/></g><g><defs><circle id="SVGID_55_" cx="108.3" cy="131" r="92.6"/></defs><clipPath id="SVGID_56_"><use xlink:href="#SVGID_55_" overflow="visible"/></clipPath><g class="st31"><path class="st32" d="M155.1 65h9.4v9.1h-9.4zM51.1 93V74.3h9.5V65H155.1v-9.5h-18.9v-6H79.5v6H60.6V65h-9.5v9.1h-9.2v28.4h9.2zM164.4 93v9.5h9.5V74.1h-9.5v9.5zM164.5 130.3v19.4h-9.8v9h-19.4v-9h-10v-9.4H88.8v9.4h-9.5v9H60.6v-9h-9.5v-19.5h-9.2v29H50v9h20v9.3h17.9v7.1h38.2v-7.1h19.1v-9.3h19.4v-9h9.5v-28.9h-9.6zm-39.3 34.1H88.9v-14.5h36.4l-.1 14.5z"/></g></g><g class="st33"><image width="475" height="192" xlink:href="D276D1C2BA49D9B.png" transform="matrix(.2395 0 0 .23 47.148 7.862)" overflow="visible" opacity=".8"/><path class="st0" d="M102.7 44.3L51.6 48l2.4-4.1-2.9-2.4 2.2-3-2.9-2.8 3-3.3-3.4-2.6 3-3.4-3.4-2.1 2.9-2.8-3.4-3.9 51.1-3.9 3.1-.2 51-3.6L152 14l2.8 2.3-2.1 3 2.8 2.8-3 3.3 3.4 2.7-3 3.3 3.4 2.1-2.8 2.9 3.3 3.9-51.1 3.8z"/></g><path class="st34" d="M102.7 44.3L51.6 48l2.4-4.1-2.9-2.4 2.2-3-2.9-2.8 3-3.3-3.4-2.6 3-3.4-3.4-2.1 2.9-2.8-3.4-3.9 51.1-3.9 3.1-.2 51-3.6L152 14l2.8 2.3-2.1 3 2.8 2.8-3 3.3 3.4 2.7-3 3.3 3.4 2.1-2.8 2.9 3.3 3.9-51.1 3.8z"/><path class="st28" d="M38.6 101.1h12.5v29.2H38.6zM164.5 101.1H177v29.2h-12.5z"/></svg>